<?xml version="1.0" encoding="UTF-8"?>
<svg id="Layer_2" data-name="Layer 2" xmlns="http://www.w3.org/2000/svg" viewBox="0 0 466.27 140.98">
  <defs>
    <style>
      .cls-1 {
        fill: #9826db;
      }

      .cls-2 {
        fill: #fff;
      }
    </style>
  </defs>
  <g id="Layer_1-2" data-name="Layer 1">
    <path class="cls-1" d="M.27,34.46C17.11,18.71,31.68-7.97,58.95,2.28c14.03,5.27,26.23,32.47,41.05,34.95,4.18.7,8.46-.15,12.65.35,30.76,3.62,39.53,43.75,21.63,65.42-6.6,7.99-32.33,32.87-41.25,35.75-30.64,9.9-36.87-15.72-54.85-28.71-12.5-9.03-29.52-1.22-36.42-19.58-4.76-12.67.24-27.17,13.93-31.04,25.53-7.21,34.89,29.45,56.76,35.35,15.45,4.17,33.43-3.84,33.79-21.29-27.21,8.4-36.78-17.9-53.52-30.98-3.14-2.46-13.39-8.02-16.98-8.02H.24l.03-.02Z"/>
    <path d="M245.27,27.46v24c6.55-3.26,12.03-4.71,19.49-3.99,31.08,3.01,33.59,50.41,4.31,59.29-7.71,2.34-18.25,2.66-23.3-4.3l-2.01,5h-14.5V27.46h16.01ZM256,62.69c-14.73,3.06-14.77,27.04,1.02,29.53,23.09,3.65,24.31-34.79-1.02-29.53Z"/>
    <path d="M318.03,47.72c44.22-6.49,47.46,56.83,8.63,60.63-39.62,3.88-45.72-55.19-8.63-60.63ZM319,62.69c-16.81,3.48-13.56,33.97,8.33,29.32,17.78-3.78,14.06-33.96-8.33-29.32h0Z"/>
    <path d="M429.27,49.46v33.5c0,10.7,16.57,14.31,20.44,4.44.26-.65,1.56-6.11,1.56-6.44v-31.5h15v41.5c0,.67-2.85,6.4-3.56,7.44-9.65,14.04-35.71,14.47-44.63-.24-1.19-1.96-3.81-8.26-3.81-10.19v-38.5h15Z"/>
    <rect x="181.27" y="27.46" width="16" height="80"/>
    <path d="M221.27,27.46c.5.36-1,1.29-1,1.5v78.5h-15V27.46h16Z"/>
    <path d="M407.27,64.46c-5.23-1.19-16,.76-16,7.5v35.5h-16v-37.5c0-1.35,3.16-9.25,4.16-10.84,5.47-8.68,18.6-13.57,27.84-9.16v14.5Z"/>
    <polygon points="173.27 49.46 173.27 107.46 157.27 107.46 157.27 50.96 158.77 49.46 173.27 49.46"/>
    <path d="M162.99,25.65c12.03-2.66,14.65,14.38,4.55,16.61-12.04,2.66-14.18-14.48-4.55-16.61Z"/>
    <path d="M359,94.63c12.46-2.59,11.89,17.9-1.8,13.38-6.2-2.04-5.02-11.96,1.8-13.38Z"/>
    <path class="cls-2" d="M256,62.69c25.33-5.26,24.11,33.18,1.02,29.53-15.79-2.49-15.75-26.48-1.02-29.53Z"/>
    <path class="cls-2" d="M319,62.69c22.39-4.64,26.12,25.54,8.33,29.32-21.9,4.66-25.14-25.83-8.33-29.32h0Z"/>
  </g>
</svg>