<?xml version="1.0" encoding="UTF-8"?>
<svg id="Layer_2" data-name="Layer 2" xmlns="http://www.w3.org/2000/svg" viewBox="0 0 143.47 140.98">
  <defs>
    <style>
      .cls-1 {
        fill: #9826db;
      }
    </style>
  </defs>
  <g id="Layer_1-2" data-name="Layer 1">
    <path class="cls-1" d="M.27,34.46C17.11,18.71,31.68-7.97,58.95,2.28c14.03,5.27,26.23,32.47,41.05,34.95,4.18.7,8.46-.15,12.65.35,30.76,3.62,39.53,43.75,21.63,65.42-6.6,7.99-32.33,32.87-41.25,35.75-30.64,9.9-36.87-15.72-54.85-28.71-12.5-9.03-29.52-1.22-36.42-19.58-4.76-12.67.24-27.17,13.93-31.04,25.53-7.21,34.89,29.45,56.76,35.35,15.45,4.17,33.43-3.84,33.79-21.29-27.21,8.4-36.78-17.9-53.52-30.98-3.14-2.46-13.39-8.02-16.98-8.02H.24l.03-.02Z"/>
  </g>
</svg>